Reiton Kyôju to Eien no Utahime (2009)

Country:Japan  Language:Japanese

Aka : Professor Layton, Professor Layton and the Eternal Diva, Professor Layton en de Eeuwige Diva

Based on the popular and award-winning Professor Layton Nintendo DS puzzle game series, this movie is set to take place directly after the events of Professor Layton and the Specter's Flute, in which Layton's apprentice, Luke, is investigating the concept of immortality.Professor Layton receives a letter from the famed opera singer, Jenice Kaitly, inviting them to see her newest performance. She also asks Layton, Luke, and Remi for assistance in a mystery, saying her friend Melina went missing one year ago but returned later as a seven year old girl saying she had found the secret of eternal life. Naturally, the case fascinates Layton and his apprentices, so they head to the Crown Petone opera house. When they arrive, something is very strange: the pianist, Ozro Vislar talks of a game, and the winner will win the "eternal life." It is up to Layton, Luke, and Remi to solve the mystery of the Eternal Diva before it is too late. 
 
http://www.imdb.com/title/tt1488591/

Audio: Japanese Subtitles (srt) : Dutch, French and Italian.

Covers included.

Layton ontvangt een uitnodiging van de beroemde operazangeres Jenice Kaitly, waarin ze uitgenodigd wordt om haar nieuwste show bij te wonen. Ook vraagt ze de hulp van Layton, Luke en Remi om haar te helpen met een mysterie; haar vriendin Melina verdween een jaar geleden, maar keerde terug als een 7-jarig meisje. Ze vertelde dat ze het geheim van het eeuwige leven had gevonden. Layton en de rest kunnen niet wachten dit mysterie te onderzoeken, dus begeven ze zich naar de 'Crown Petone', waar de opera plaatsvindt. Als ze aankomen wordt hen al snel iets vreemds verteld door de pianist Ozro Vislar; volgens hem is er een spelletje waarbij de winnaar het eeuwige leven ontvangt. Layton en de rest zullen dit mysterie nu op moeten lossen.
  
http://www.moviemeter.nl/film/61836

Audio: Japans  Ondertitels (srt) : Frans, Italiaans en Nederlands.

Hoesjes bijgevoegd.

General
Complete name                    : Professor Layton-De eeuwige Diva-XviD-DVDRip[Jap]2010 2Lions-Team.avi
Format                           : AVI
Format/Info                      : Audio Video Interleave
File size                        : 1.24 GiB
Duration                         : 1h 34mn
Overall bit rate                 : 1 873 Kbps
Writing application              : VirtualDubMod 1.5.4.1 (build 2178/release)
Writing library                  : VirtualDubMod build 2178/release

Video
ID                               : 0
Format                           : MPEG-4 Visual
Format profile                   : Simple@L3
Format settings, BVOP            : No
Format settings, QPel            : No
Format settings, GMC             : No warppoints
Format settings, Matrix          : Default (H.263)
Codec ID                         : XVID
Codec ID/Hint                    : XviD
Duration                         : 1h 34mn
Bit rate                         : 1 415 Kbps
Width                            : 720 pixels
Height                           : 400 pixels
Display aspect ratio             : 16:9
Frame rate                       : 25.000 fps
Resolution                       : 8 bits
Colorimetry                      : 4:2:0
Scan type                        : Progressive
Bits/(Pixel*Frame)               : 0.197
Stream size                      : 960 MiB (76%)
Writing library                  : XviD 1.1.2 (UTC 2006-11-01)

Audio
ID                               : 1
Format                           : AC-3
Format/Info                      : Audio Coding 3
Codec ID                         : 2000
Duration                         : 1h 34mn
Bit rate mode                    : Constant
Bit rate                         : 448 Kbps
Channel(s)                       : 6 channels
Channel positions                : Front: L C R, Surround: L R, LFE
Sampling rate                    : 48.0 KHz
Stream size                      : 304 MiB (24%)
Alignment                        : Split accross interleaves
Interleave, duration             : 40 ms (1.00 video frame)
Interleave, preload duration     : 500 ms

Thanks to Drentje for the source...

Brought to you by Gollum

DON T HIT AND RUN Niet gelijk afhaken als de FILM binnen is blijf seeden. 

Don`t quit after you finished the download, but keep seeding

There are fake torrents from uploaders who use our team name.
Those are not ours, or members from our team.
We 2Lions-Team are not responsible for the fake posts on our name

Wij 2Lions-Team zijn niet verantwoordelijk voor die zieke FAKE posten die op onze naam worden gedaan

Please check our site !!!

to the fakers , get a life !!!